<mxfile host="app.diagrams.net" agent="Mozilla/5.0 (Windows NT 10.0; Win64; x64) AppleWebKit/537.36 (KHTML, like Gecko) Chrome/134.0.0.0 Safari/537.36" version="26.1.3">
  <diagram name="Strona-1" id="_ttG-qcXibCgQFBTq-ok">
    <mxGraphModel dx="4783" dy="2274" grid="1" gridSize="10" guides="1" tooltips="1" connect="1" arrows="1" fold="1" page="1" pageScale="1" pageWidth="827" pageHeight="1169" math="0" shadow="0">
      <root>
        <mxCell id="0" />
        <mxCell id="1" parent="0" />
        <mxCell id="_RvyWgGZ_pvgkkkLHIGy-6" style="edgeStyle=none;curved=1;rounded=0;orthogonalLoop=1;jettySize=auto;html=1;fontSize=12;startSize=8;endSize=8;" edge="1" parent="1" source="_RvyWgGZ_pvgkkkLHIGy-2" target="_RvyWgGZ_pvgkkkLHIGy-5">
          <mxGeometry relative="1" as="geometry" />
        </mxCell>
        <mxCell id="_RvyWgGZ_pvgkkkLHIGy-2" value="Klienci" style="shape=umlActor;verticalLabelPosition=bottom;verticalAlign=top;html=1;outlineConnect=0;" vertex="1" parent="1">
          <mxGeometry x="30" y="190" width="30" height="60" as="geometry" />
        </mxCell>
        <mxCell id="_RvyWgGZ_pvgkkkLHIGy-3" value="Zakład na&lt;div&gt;wygraną A&lt;/div&gt;" style="shape=umlBoundary;whiteSpace=wrap;html=1;" vertex="1" parent="1">
          <mxGeometry x="130" y="50" width="100" height="80" as="geometry" />
        </mxCell>
        <mxCell id="_RvyWgGZ_pvgkkkLHIGy-4" style="edgeStyle=none;curved=1;rounded=0;orthogonalLoop=1;jettySize=auto;html=1;fontSize=12;startSize=8;endSize=8;entryX=-0.022;entryY=0.712;entryDx=0;entryDy=0;entryPerimeter=0;" edge="1" parent="1" source="_RvyWgGZ_pvgkkkLHIGy-2" target="_RvyWgGZ_pvgkkkLHIGy-3">
          <mxGeometry relative="1" as="geometry" />
        </mxCell>
        <mxCell id="_RvyWgGZ_pvgkkkLHIGy-5" value="Zakład na&lt;div&gt;wygraną B&lt;/div&gt;" style="shape=umlBoundary;whiteSpace=wrap;html=1;" vertex="1" parent="1">
          <mxGeometry x="130" y="330" width="100" height="80" as="geometry" />
        </mxCell>
        <mxCell id="_RvyWgGZ_pvgkkkLHIGy-7" value="Obliczanie kursu na podstawie zakładów" style="ellipse;shape=umlControl;whiteSpace=wrap;html=1;" vertex="1" parent="1">
          <mxGeometry x="394" y="160" width="90" height="100" as="geometry" />
        </mxCell>
        <mxCell id="_RvyWgGZ_pvgkkkLHIGy-8" style="edgeStyle=none;curved=1;rounded=0;orthogonalLoop=1;jettySize=auto;html=1;entryX=0.302;entryY=0.947;entryDx=0;entryDy=0;entryPerimeter=0;fontSize=12;startSize=8;endSize=8;" edge="1" parent="1" source="_RvyWgGZ_pvgkkkLHIGy-5" target="_RvyWgGZ_pvgkkkLHIGy-7">
          <mxGeometry relative="1" as="geometry" />
        </mxCell>
        <mxCell id="_RvyWgGZ_pvgkkkLHIGy-9" style="edgeStyle=none;curved=1;rounded=0;orthogonalLoop=1;jettySize=auto;html=1;entryX=0.178;entryY=0.2;entryDx=0;entryDy=0;entryPerimeter=0;fontSize=12;startSize=8;endSize=8;" edge="1" parent="1" source="_RvyWgGZ_pvgkkkLHIGy-3" target="_RvyWgGZ_pvgkkkLHIGy-7">
          <mxGeometry relative="1" as="geometry" />
        </mxCell>
        <mxCell id="_RvyWgGZ_pvgkkkLHIGy-15" style="edgeStyle=none;curved=1;rounded=0;orthogonalLoop=1;jettySize=auto;html=1;fontSize=12;startSize=8;endSize=8;" edge="1" parent="1" source="_RvyWgGZ_pvgkkkLHIGy-12" target="_RvyWgGZ_pvgkkkLHIGy-5">
          <mxGeometry relative="1" as="geometry" />
        </mxCell>
        <mxCell id="_RvyWgGZ_pvgkkkLHIGy-12" value="Baza danych" style="ellipse;shape=umlEntity;whiteSpace=wrap;html=1;" vertex="1" parent="1">
          <mxGeometry x="120" y="170" width="80" height="80" as="geometry" />
        </mxCell>
        <mxCell id="_RvyWgGZ_pvgkkkLHIGy-14" style="edgeStyle=none;curved=1;rounded=0;orthogonalLoop=1;jettySize=auto;html=1;entryX=0.573;entryY=1.009;entryDx=0;entryDy=0;entryPerimeter=0;fontSize=12;startSize=8;endSize=8;" edge="1" parent="1" source="_RvyWgGZ_pvgkkkLHIGy-12" target="_RvyWgGZ_pvgkkkLHIGy-3">
          <mxGeometry relative="1" as="geometry" />
        </mxCell>
        <mxCell id="_RvyWgGZ_pvgkkkLHIGy-18" style="edgeStyle=none;curved=1;rounded=0;orthogonalLoop=1;jettySize=auto;html=1;entryX=1;entryY=0.5;entryDx=0;entryDy=0;fontSize=12;startSize=8;endSize=8;" edge="1" parent="1" source="_RvyWgGZ_pvgkkkLHIGy-16" target="_RvyWgGZ_pvgkkkLHIGy-12">
          <mxGeometry relative="1" as="geometry" />
        </mxCell>
        <mxCell id="_RvyWgGZ_pvgkkkLHIGy-16" value="Aktualizacja&lt;div&gt;kursów&lt;/div&gt;" style="ellipse;shape=umlControl;whiteSpace=wrap;html=1;" vertex="1" parent="1">
          <mxGeometry x="270" y="170" width="70" height="80" as="geometry" />
        </mxCell>
        <mxCell id="_RvyWgGZ_pvgkkkLHIGy-17" style="edgeStyle=none;curved=1;rounded=0;orthogonalLoop=1;jettySize=auto;html=1;entryX=1.029;entryY=0.569;entryDx=0;entryDy=0;entryPerimeter=0;fontSize=12;startSize=8;endSize=8;" edge="1" parent="1" source="_RvyWgGZ_pvgkkkLHIGy-7" target="_RvyWgGZ_pvgkkkLHIGy-16">
          <mxGeometry relative="1" as="geometry" />
        </mxCell>
      </root>
    </mxGraphModel>
  </diagram>
</mxfile>
